<?xml version="1.0" standalone="no"?>
<!DOCTYPE svg PUBLIC "-//W3C//DTD SVG 20010904//EN"
 "http://www.w3.org/TR/2001/REC-SVG-20010904/DTD/svg10.dtd">
<svg version="1.0" xmlns="http://www.w3.org/2000/svg"
 width="700.000000pt" height="700.000000pt" viewBox="0 0 700.000000 700.000000"
 preserveAspectRatio="xMidYMid meet">
<metadata>
Created by potrace 1.11, written by Peter Selinger 2001-2013
</metadata>
<g transform="translate(0.000000,700.000000) scale(0.100000,-0.100000)"
fill="#000000" stroke="none">
<path d="M3440 6993 c-24 -8 -82 -35 -305 -143 -115 -56 -255 -124 -310 -150
-55 -26 -181 -87 -280 -135 -99 -48 -229 -111 -290 -140 -60 -29 -186 -89
-279 -134 -234 -114 -595 -288 -871 -421 -140 -67 -312 -151 -670 -325 -104
-50 -199 -102 -210 -115 -20 -22 -20 -36 -20 -1930 l0 -1909 29 -30 c17 -17
33 -31 36 -31 4 0 110 -50 236 -111 234 -114 392 -190 639 -309 221 -106 397
-191 570 -275 234 -113 435 -210 560 -270 61 -29 200 -96 310 -150 110 -53
241 -116 290 -140 50 -24 194 -94 320 -156 l230 -113 75 0 75 0 230 113 c127
62 275 135 330 161 55 26 240 115 410 197 471 228 820 397 1030 498 72 35 211
102 310 150 99 48 225 109 280 135 55 26 190 91 300 145 110 53 218 105 240
115 22 10 51 30 65 45 l25 27 0 1908 c0 1894 0 1908 -20 1931 -18 19 -209 116
-580 294 -60 29 -186 90 -280 135 -205 99 -393 190 -580 280 -332 160 -440
212 -600 290 -261 127 -472 228 -560 270 -44 21 -188 90 -320 155 -132 64
-251 122 -265 127 -27 12 -126 19 -150 11z"/>
</g>
</svg>
